<svg xmlns="http://www.w3.org/2000/svg" xmlns:xlink="http://www.w3.org/1999/xlink" contentStyleType="text/css" height="2872.8px" preserveAspectRatio="none" style="width:3425px;height:2872px;background:#FFFFFF;" version="1.1" viewBox="0 0 3425 2872" width="3425.4px" zoomAndPan="magnify"><defs/><g><!--cluster Personal M?dico--><g id="cluster_Personal M&#233;dico"><path d="M1973.7,553.32 L2263.5,553.32 A6.75,6.75 0 0 1 2268,557.82 L2280.6,647.4544 L3408.3,647.4544 A4.5,4.5 0 0 1 3412.8,651.9544 L3412.8,1690.128 A4.5,4.5 0 0 1 3408.3,1694.628 L1973.7,1694.628 A4.5,4.5 0 0 1 1969.2,1690.128 L1969.2,557.82 A4.5,4.5 0 0 1 1973.7,553.32 " fill="none" style="stroke:#000000;stroke-width:2.7;"/><line style="stroke:#000000;stroke-width:2.7;" x1="1969.2" x2="2280.6" y1="647.4544" y2="647.4544"/><text fill="#000000" font-family="sans-serif" font-size="25.2" font-weight="bold" lengthAdjust="spacing" textLength="234" x="2003.4" y="607.3112">Personal M&#233;dico</text></g><!--cluster Pacientes--><g id="cluster_Pacientes"><path d="M998.1,1177.074 L1192.5,1177.074 A6.75,6.75 0 0 1 1197,1181.574 L1209.6,1271.2084 L1921.5,1271.2084 A4.5,4.5 0 0 1 1926,1275.7084 L1926,2856.402 A4.5,4.5 0 0 1 1921.5,2860.902 L998.1,2860.902 A4.5,4.5 0 0 1 993.6,2856.402 L993.6,1181.574 A4.5,4.5 0 0 1 998.1,1177.074 " fill="none" style="stroke:#000000;stroke-width:2.7;"/><line style="stroke:#000000;stroke-width:2.7;" x1="993.6" x2="1209.6" y1="1271.2084" y2="1271.2084"/><text fill="#000000" font-family="sans-serif" font-size="25.2" font-weight="bold" lengthAdjust="spacing" textLength="138.6" x="1027.8" y="1231.0652">Pacientes</text></g><!--cluster Gesti?n de Citas--><g id="cluster_Gesti&#243;n de Citas"><path d="M54.9,10.8 L344.7,10.8 A6.75,6.75 0 0 1 349.2,15.3 L361.8,104.9344 L945.9,104.9344 A4.5,4.5 0 0 1 950.4,109.4344 L950.4,1690.128 A4.5,4.5 0 0 1 945.9,1694.628 L54.9,1694.628 A4.5,4.5 0 0 1 50.4,1690.128 L50.4,15.3 A4.5,4.5 0 0 1 54.9,10.8 " fill="none" style="stroke:#000000;stroke-width:2.7;"/><line style="stroke:#000000;stroke-width:2.7;" x1="50.4" x2="361.8" y1="104.9344" y2="104.9344"/><text fill="#000000" font-family="sans-serif" font-size="25.2" font-weight="bold" lengthAdjust="spacing" textLength="234" x="84.6" y="64.7912">Gesti&#243;n de Citas</text></g><!--class Doctor--><g id="elem_Doctor"><rect codeLine="16" fill="#FFFFE0" height="371.7563" id="Doctor" rx="4.5" ry="4.5" style="stroke:#181818;stroke-width:3.6;" width="284.4" x="1998" y="1294.074"/><ellipse cx="2067.93" cy="1343.6935" fill="#ADD1B2" rx="19.8" ry="19.8" style="stroke:#181818;stroke-width:1.8;"/><path d="M2073.2738,1353.8467 Q2072.2331,1354.381 2071.08,1354.6342 Q2069.9269,1354.9154 2068.6613,1354.9154 Q2064.1613,1354.9154 2061.7706,1351.9623 Q2059.4081,1348.981 2059.4081,1343.356 Q2059.4081,1337.731 2061.7706,1334.7498 Q2064.1613,1331.7685 2068.6613,1331.7685 Q2069.9269,1331.7685 2071.08,1332.0498 Q2072.2613,1332.331 2073.2738,1332.8654 L2073.2738,1337.7592 Q2072.1488,1336.7185 2071.08,1336.2404 Q2070.0113,1335.7342 2068.8863,1335.7342 Q2066.4675,1335.7342 2065.23,1337.6748 Q2063.9925,1339.5873 2063.9925,1343.356 Q2063.9925,1347.1248 2065.23,1349.0654 Q2066.4675,1350.9779 2068.8863,1350.9779 Q2070.0113,1350.9779 2071.08,1350.4998 Q2072.1488,1349.9935 2073.2738,1348.9529 L2073.2738,1353.8467 Z " fill="#000000"/><text fill="#000000" font-family="sans-serif" font-size="23.4" lengthAdjust="spacing" textLength="77.4" x="2129.67" y="1351.7944">Doctor</text><line style="stroke:#181818;stroke-width:3.6;" x1="1999.8" x2="2280.6" y1="1393.3131" y2="1393.3131"/><ellipse cx="2017.8" cy="1443.8326" fill="none" rx="5.4" ry="5.4" style="stroke:#038048;stroke-width:1.8;"/><text fill="#000000" font-family="sans-serif" font-size="23.4" lengthAdjust="spacing" textLength="90" x="2061" y="1449.2335">id: Long</text><ellipse cx="2017.8" cy="1525.0717" fill="none" rx="5.4" ry="5.4" style="stroke:#038048;stroke-width:1.8;"/><text fill="#000000" font-family="sans-serif" font-size="23.4" lengthAdjust="spacing" textLength="149.4" x="2061" y="1530.4725">name: String</text><ellipse cx="2017.8" cy="1606.3107" fill="none" rx="5.4" ry="5.4" style="stroke:#038048;stroke-width:1.8;"/><text fill="#000000" font-family="sans-serif" font-size="23.4" lengthAdjust="spacing" textLength="183.6" x="2061" y="1611.7116">specialty: String</text><line style="stroke:#181818;stroke-width:3.6;" x1="1999.8" x2="2280.6" y1="1651.4303" y2="1651.4303"/></g><!--class Nurse--><g id="elem_Nurse"><rect codeLine="22" fill="#FFFFE0" height="290.5172" id="Nurse" rx="4.5" ry="4.5" style="stroke:#181818;stroke-width:3.6;" width="250.2" x="2535.3" y="1334.7"/><ellipse cx="2593.89" cy="1384.3195" fill="#ADD1B2" rx="19.8" ry="19.8" style="stroke:#181818;stroke-width:1.8;"/><path d="M2599.2338,1394.4727 Q2598.1931,1395.007 2597.04,1395.2602 Q2595.8869,1395.5414 2594.6213,1395.5414 Q2590.1213,1395.5414 2587.7306,1392.5883 Q2585.3681,1389.607 2585.3681,1383.982 Q2585.3681,1378.357 2587.7306,1375.3758 Q2590.1213,1372.3945 2594.6213,1372.3945 Q2595.8869,1372.3945 2597.04,1372.6758 Q2598.2213,1372.957 2599.2338,1373.4914 L2599.2338,1378.3852 Q2598.1088,1377.3445 2597.04,1376.8664 Q2595.9713,1376.3602 2594.8463,1376.3602 Q2592.4275,1376.3602 2591.19,1378.3008 Q2589.9525,1380.2133 2589.9525,1383.982 Q2589.9525,1387.7508 2591.19,1389.6914 Q2592.4275,1391.6039 2594.8463,1391.6039 Q2595.9713,1391.6039 2597.04,1391.1258 Q2598.1088,1390.6195 2599.2338,1389.5789 L2599.2338,1394.4727 Z " fill="#000000"/><text fill="#000000" font-family="sans-serif" font-size="23.4" lengthAdjust="spacing" textLength="68.4" x="2653.11" y="1392.4204">Nurse</text><line style="stroke:#181818;stroke-width:3.6;" x1="2537.1" x2="2783.7" y1="1433.9391" y2="1433.9391"/><ellipse cx="2555.1" cy="1484.4586" fill="none" rx="5.4" ry="5.4" style="stroke:#038048;stroke-width:1.8;"/><text fill="#000000" font-family="sans-serif" font-size="23.4" lengthAdjust="spacing" textLength="90" x="2598.3" y="1489.8595">id: Long</text><ellipse cx="2555.1" cy="1565.6977" fill="none" rx="5.4" ry="5.4" style="stroke:#038048;stroke-width:1.8;"/><text fill="#000000" font-family="sans-serif" font-size="23.4" lengthAdjust="spacing" textLength="149.4" x="2598.3" y="1571.0985">name: String</text><line style="stroke:#181818;stroke-width:3.6;" x1="2537.1" x2="2783.7" y1="1610.8172" y2="1610.8172"/></g><!--class WorkPeriod--><g id="elem_WorkPeriod"><rect codeLine="27" fill="#FFFFE0" height="371.7563" id="WorkPeriod" rx="4.5" ry="4.5" style="stroke:#181818;stroke-width:3.6;" width="280.8" x="2520" y="670.32"/><ellipse cx="2565.63" cy="719.9395" fill="#ADD1B2" rx="19.8" ry="19.8" style="stroke:#181818;stroke-width:1.8;"/><path d="M2570.9738,730.0927 Q2569.9331,730.627 2568.78,730.8802 Q2567.6269,731.1614 2566.3613,731.1614 Q2561.8613,731.1614 2559.4706,728.2083 Q2557.1081,725.227 2557.1081,719.602 Q2557.1081,713.977 2559.4706,710.9958 Q2561.8613,708.0145 2566.3613,708.0145 Q2567.6269,708.0145 2568.78,708.2958 Q2569.9613,708.577 2570.9738,709.1114 L2570.9738,714.0052 Q2569.8488,712.9645 2568.78,712.4864 Q2567.7113,711.9802 2566.5863,711.9802 Q2564.1675,711.9802 2562.93,713.9208 Q2561.6925,715.8333 2561.6925,719.602 Q2561.6925,723.3708 2562.93,725.3114 Q2564.1675,727.2239 2566.5863,727.2239 Q2567.7113,727.2239 2568.78,726.7458 Q2569.8488,726.2395 2570.9738,725.1989 L2570.9738,730.0927 Z " fill="#000000"/><text fill="#000000" font-family="sans-serif" font-size="23.4" lengthAdjust="spacing" textLength="127.8" x="2621.97" y="728.0404">WorkPeriod</text><line style="stroke:#181818;stroke-width:3.6;" x1="2521.8" x2="2799" y1="769.5591" y2="769.5591"/><ellipse cx="2539.8" cy="820.0786" fill="none" rx="5.4" ry="5.4" style="stroke:#038048;stroke-width:1.8;"/><text fill="#000000" font-family="sans-serif" font-size="23.4" lengthAdjust="spacing" textLength="90" x="2583" y="825.4795">id: Long</text><ellipse cx="2539.8" cy="901.3177" fill="none" rx="5.4" ry="5.4" style="stroke:#038048;stroke-width:1.8;"/><text fill="#000000" font-family="sans-serif" font-size="23.4" lengthAdjust="spacing" textLength="180" x="2583" y="906.7185">startDate: Date</text><ellipse cx="2539.8" cy="982.5567" fill="none" rx="5.4" ry="5.4" style="stroke:#038048;stroke-width:1.8;"/><text fill="#000000" font-family="sans-serif" font-size="23.4" lengthAdjust="spacing" textLength="169.2" x="2583" y="987.9576">endDate: Date</text><line style="stroke:#181818;stroke-width:3.6;" x1="2521.8" x2="2799" y1="1027.6763" y2="1027.6763"/></g><!--class Timetable--><g id="elem_Timetable"><rect codeLine="33" fill="#FFFFE0" height="371.7563" id="Timetable" rx="4.5" ry="4.5" style="stroke:#181818;stroke-width:3.6;" width="345.6" x="3038.4" y="1294.074"/><ellipse cx="3119.85" cy="1343.6935" fill="#ADD1B2" rx="19.8" ry="19.8" style="stroke:#181818;stroke-width:1.8;"/><path d="M3125.1938,1353.8467 Q3124.1531,1354.381 3123,1354.6342 Q3121.8469,1354.9154 3120.5813,1354.9154 Q3116.0813,1354.9154 3113.6906,1351.9623 Q3111.3281,1348.981 3111.3281,1343.356 Q3111.3281,1337.731 3113.6906,1334.7498 Q3116.0813,1331.7685 3120.5813,1331.7685 Q3121.8469,1331.7685 3123,1332.0498 Q3124.1813,1332.331 3125.1938,1332.8654 L3125.1938,1337.7592 Q3124.0688,1336.7185 3123,1336.2404 Q3121.9313,1335.7342 3120.8063,1335.7342 Q3118.3875,1335.7342 3117.15,1337.6748 Q3115.9125,1339.5873 3115.9125,1343.356 Q3115.9125,1347.1248 3117.15,1349.0654 Q3118.3875,1350.9779 3120.8063,1350.9779 Q3121.9313,1350.9779 3123,1350.4998 Q3124.0688,1349.9935 3125.1938,1348.9529 L3125.1938,1353.8467 Z " fill="#000000"/><text fill="#000000" font-family="sans-serif" font-size="23.4" lengthAdjust="spacing" textLength="113.4" x="3183.75" y="1351.7944">Timetable</text><line style="stroke:#181818;stroke-width:3.6;" x1="3040.2" x2="3382.2" y1="1393.3131" y2="1393.3131"/><ellipse cx="3058.2" cy="1443.8326" fill="none" rx="5.4" ry="5.4" style="stroke:#038048;stroke-width:1.8;"/><text fill="#000000" font-family="sans-serif" font-size="23.4" lengthAdjust="spacing" textLength="90" x="3101.4" y="1449.2335">id: Long</text><ellipse cx="3058.2" cy="1525.0717" fill="none" rx="5.4" ry="5.4" style="stroke:#038048;stroke-width:1.8;"/><text fill="#000000" font-family="sans-serif" font-size="23.4" lengthAdjust="spacing" textLength="244.8" x="3101.4" y="1530.4725">mondayHours: String</text><ellipse cx="3058.2" cy="1606.3107" fill="none" rx="5.4" ry="5.4" style="stroke:#038048;stroke-width:1.8;"/><text fill="#000000" font-family="sans-serif" font-size="23.4" lengthAdjust="spacing" textLength="243" x="3101.4" y="1611.7116">tuesdayHours: String</text><line style="stroke:#181818;stroke-width:3.6;" x1="3040.2" x2="3382.2" y1="1651.4303" y2="1651.4303"/></g><!--class Patient--><g id="elem_Patient"><rect codeLine="46" fill="#FFFFE0" height="371.7563" id="Patient" rx="4.5" ry="4.5" style="stroke:#181818;stroke-width:3.6;" width="279" x="1316.7" y="1294.074"/><ellipse cx="1382.58" cy="1343.6935" fill="#ADD1B2" rx="19.8" ry="19.8" style="stroke:#181818;stroke-width:1.8;"/><path d="M1387.9238,1353.8467 Q1386.8831,1354.381 1385.73,1354.6342 Q1384.5769,1354.9154 1383.3113,1354.9154 Q1378.8113,1354.9154 1376.4206,1351.9623 Q1374.0581,1348.981 1374.0581,1343.356 Q1374.0581,1337.731 1376.4206,1334.7498 Q1378.8113,1331.7685 1383.3113,1331.7685 Q1384.5769,1331.7685 1385.73,1332.0498 Q1386.9113,1332.331 1387.9238,1332.8654 L1387.9238,1337.7592 Q1386.7988,1336.7185 1385.73,1336.2404 Q1384.6613,1335.7342 1383.5363,1335.7342 Q1381.1175,1335.7342 1379.88,1337.6748 Q1378.6425,1339.5873 1378.6425,1343.356 Q1378.6425,1347.1248 1379.88,1349.0654 Q1381.1175,1350.9779 1383.5363,1350.9779 Q1384.6613,1350.9779 1385.73,1350.4998 Q1386.7988,1349.9935 1387.9238,1348.9529 L1387.9238,1353.8467 Z " fill="#000000"/><text fill="#000000" font-family="sans-serif" font-size="23.4" lengthAdjust="spacing" textLength="81" x="1443.42" y="1351.7944">Patient</text><line style="stroke:#181818;stroke-width:3.6;" x1="1318.5" x2="1593.9" y1="1393.3131" y2="1393.3131"/><ellipse cx="1336.5" cy="1443.8326" fill="none" rx="5.4" ry="5.4" style="stroke:#038048;stroke-width:1.8;"/><text fill="#000000" font-family="sans-serif" font-size="23.4" lengthAdjust="spacing" textLength="90" x="1379.7" y="1449.2335">id: Long</text><ellipse cx="1336.5" cy="1525.0717" fill="none" rx="5.4" ry="5.4" style="stroke:#038048;stroke-width:1.8;"/><text fill="#000000" font-family="sans-serif" font-size="23.4" lengthAdjust="spacing" textLength="149.4" x="1379.7" y="1530.4725">name: String</text><ellipse cx="1336.5" cy="1606.3107" fill="none" rx="5.4" ry="5.4" style="stroke:#038048;stroke-width:1.8;"/><text fill="#000000" font-family="sans-serif" font-size="23.4" lengthAdjust="spacing" textLength="178.2" x="1379.7" y="1611.7116">birthDate: Date</text><line style="stroke:#181818;stroke-width:3.6;" x1="1318.5" x2="1593.9" y1="1651.4303" y2="1651.4303"/></g><!--class MedicalRecord--><g id="elem_MedicalRecord"><rect codeLine="52" fill="#FFFFE0" height="290.5172" id="MedicalRecord" rx="4.5" ry="4.5" style="stroke:#181818;stroke-width:3.6;" width="320.4" x="1332" y="1917.828"/><ellipse cx="1378.44" cy="1967.4475" fill="#ADD1B2" rx="19.8" ry="19.8" style="stroke:#181818;stroke-width:1.8;"/><path d="M1383.7838,1977.6007 Q1382.7431,1978.135 1381.59,1978.3882 Q1380.4369,1978.6694 1379.1712,1978.6694 Q1374.6712,1978.6694 1372.2806,1975.7163 Q1369.9181,1972.735 1369.9181,1967.11 Q1369.9181,1961.485 1372.2806,1958.5038 Q1374.6712,1955.5225 1379.1712,1955.5225 Q1380.4369,1955.5225 1381.59,1955.8038 Q1382.7713,1956.085 1383.7838,1956.6194 L1383.7838,1961.5132 Q1382.6588,1960.4725 1381.59,1959.9944 Q1380.5213,1959.4882 1379.3963,1959.4882 Q1376.9775,1959.4882 1375.74,1961.4288 Q1374.5025,1963.3413 1374.5025,1967.11 Q1374.5025,1970.8788 1375.74,1972.8194 Q1376.9775,1974.7319 1379.3963,1974.7319 Q1380.5213,1974.7319 1381.59,1974.2538 Q1382.6588,1973.7475 1383.7838,1972.7069 L1383.7838,1977.6007 Z " fill="#000000"/><text fill="#000000" font-family="sans-serif" font-size="23.4" lengthAdjust="spacing" textLength="165.6" x="1434.96" y="1975.5484">MedicalRecord</text><line style="stroke:#181818;stroke-width:3.6;" x1="1333.8" x2="1650.6" y1="2017.0671" y2="2017.0671"/><ellipse cx="1351.8" cy="2067.5866" fill="none" rx="5.4" ry="5.4" style="stroke:#038048;stroke-width:1.8;"/><text fill="#000000" font-family="sans-serif" font-size="23.4" lengthAdjust="spacing" textLength="90" x="1395" y="2072.9875">id: Long</text><ellipse cx="1351.8" cy="2148.8257" fill="none" rx="5.4" ry="5.4" style="stroke:#038048;stroke-width:1.8;"/><text fill="#000000" font-family="sans-serif" font-size="23.4" lengthAdjust="spacing" textLength="219.6" x="1395" y="2154.2265">creationDate: Date</text><line style="stroke:#181818;stroke-width:3.6;" x1="1333.8" x2="1650.6" y1="2193.9452" y2="2193.9452"/></g><!--class Disease--><g id="elem_Disease"><rect codeLine="57" fill="#FFFFE0" height="371.7563" id="Disease" rx="4.5" ry="4.5" style="stroke:#181818;stroke-width:3.6;" width="309.6" x="1022.4" y="2460.348"/><ellipse cx="1097.19" cy="2509.9675" fill="#ADD1B2" rx="19.8" ry="19.8" style="stroke:#181818;stroke-width:1.8;"/><path d="M1102.5338,2520.1207 Q1101.4931,2520.655 1100.34,2520.9082 Q1099.1869,2521.1894 1097.9212,2521.1894 Q1093.4212,2521.1894 1091.0306,2518.2363 Q1088.6681,2515.255 1088.6681,2509.63 Q1088.6681,2504.005 1091.0306,2501.0238 Q1093.4212,2498.0425 1097.9212,2498.0425 Q1099.1869,2498.0425 1100.34,2498.3238 Q1101.5213,2498.605 1102.5338,2499.1394 L1102.5338,2504.0332 Q1101.4088,2502.9925 1100.34,2502.5144 Q1099.2713,2502.0082 1098.1463,2502.0082 Q1095.7275,2502.0082 1094.49,2503.9488 Q1093.2525,2505.8613 1093.2525,2509.63 Q1093.2525,2513.3988 1094.49,2515.3394 Q1095.7275,2517.2519 1098.1463,2517.2519 Q1099.2713,2517.2519 1100.34,2516.7738 Q1101.4088,2516.2675 1102.5338,2515.2269 L1102.5338,2520.1207 Z " fill="#000000"/><text fill="#000000" font-family="sans-serif" font-size="23.4" lengthAdjust="spacing" textLength="91.8" x="1160.01" y="2518.0684">Disease</text><line style="stroke:#181818;stroke-width:3.6;" x1="1024.2" x2="1330.2" y1="2559.5871" y2="2559.5871"/><ellipse cx="1042.2" cy="2610.1066" fill="none" rx="5.4" ry="5.4" style="stroke:#038048;stroke-width:1.8;"/><text fill="#000000" font-family="sans-serif" font-size="23.4" lengthAdjust="spacing" textLength="90" x="1085.4" y="2615.5075">id: Long</text><ellipse cx="1042.2" cy="2691.3457" fill="none" rx="5.4" ry="5.4" style="stroke:#038048;stroke-width:1.8;"/><text fill="#000000" font-family="sans-serif" font-size="23.4" lengthAdjust="spacing" textLength="203.4" x="1085.4" y="2696.7465">icd10Code: String</text><ellipse cx="1042.2" cy="2772.5847" fill="none" rx="5.4" ry="5.4" style="stroke:#038048;stroke-width:1.8;"/><text fill="#000000" font-family="sans-serif" font-size="23.4" lengthAdjust="spacing" textLength="208.8" x="1085.4" y="2777.9856">description: String</text><line style="stroke:#181818;stroke-width:3.6;" x1="1024.2" x2="1330.2" y1="2817.7043" y2="2817.7043"/></g><!--class Prescription--><g id="elem_Prescription"><rect codeLine="63" fill="#FFFFE0" height="371.7563" id="Prescription" rx="4.5" ry="4.5" style="stroke:#181818;stroke-width:3.6;" width="311.4" x="1584.9" y="2460.348"/><ellipse cx="1641.06" cy="2509.9675" fill="#ADD1B2" rx="19.8" ry="19.8" style="stroke:#181818;stroke-width:1.8;"/><path d="M1646.4038,2520.1207 Q1645.3631,2520.655 1644.21,2520.9082 Q1643.0569,2521.1894 1641.7913,2521.1894 Q1637.2913,2521.1894 1634.9006,2518.2363 Q1632.5381,2515.255 1632.5381,2509.63 Q1632.5381,2504.005 1634.9006,2501.0238 Q1637.2913,2498.0425 1641.7913,2498.0425 Q1643.0569,2498.0425 1644.21,2498.3238 Q1645.3913,2498.605 1646.4038,2499.1394 L1646.4038,2504.0332 Q1645.2788,2502.9925 1644.21,2502.5144 Q1643.1413,2502.0082 1642.0163,2502.0082 Q1639.5975,2502.0082 1638.36,2503.9488 Q1637.1225,2505.8613 1637.1225,2509.63 Q1637.1225,2513.3988 1638.36,2515.3394 Q1639.5975,2517.2519 1642.0163,2517.2519 Q1643.1413,2517.2519 1644.21,2516.7738 Q1645.2788,2516.2675 1646.4038,2515.2269 L1646.4038,2520.1207 Z " fill="#000000"/><text fill="#000000" font-family="sans-serif" font-size="23.4" lengthAdjust="spacing" textLength="135" x="1699.74" y="2518.0684">Prescription</text><line style="stroke:#181818;stroke-width:3.6;" x1="1586.7" x2="1894.5" y1="2559.5871" y2="2559.5871"/><ellipse cx="1604.7" cy="2610.1066" fill="none" rx="5.4" ry="5.4" style="stroke:#038048;stroke-width:1.8;"/><text fill="#000000" font-family="sans-serif" font-size="23.4" lengthAdjust="spacing" textLength="90" x="1647.9" y="2615.5075">id: Long</text><ellipse cx="1604.7" cy="2691.3457" fill="none" rx="5.4" ry="5.4" style="stroke:#038048;stroke-width:1.8;"/><text fill="#000000" font-family="sans-serif" font-size="23.4" lengthAdjust="spacing" textLength="210.6" x="1647.9" y="2696.7465">medication: String</text><ellipse cx="1604.7" cy="2772.5847" fill="none" rx="5.4" ry="5.4" style="stroke:#038048;stroke-width:1.8;"/><text fill="#000000" font-family="sans-serif" font-size="23.4" lengthAdjust="spacing" textLength="167.4" x="1647.9" y="2777.9856">dosage: String</text><line style="stroke:#181818;stroke-width:3.6;" x1="1586.7" x2="1894.5" y1="2817.7043" y2="2817.7043"/></g><!--class Appointment--><g id="elem_Appointment"><rect codeLine="76" fill="#FFFFE0" height="371.7563" id="Appointment" rx="4.5" ry="4.5" style="stroke:#181818;stroke-width:3.6;" width="334.8" x="586.8" y="670.32"/><ellipse cx="647.01" cy="719.9395" fill="#ADD1B2" rx="19.8" ry="19.8" style="stroke:#181818;stroke-width:1.8;"/><path d="M652.3538,730.0927 Q651.3131,730.627 650.16,730.8802 Q649.0069,731.1614 647.7413,731.1614 Q643.2413,731.1614 640.8506,728.2083 Q638.4881,725.227 638.4881,719.602 Q638.4881,713.977 640.8506,710.9958 Q643.2413,708.0145 647.7413,708.0145 Q649.0069,708.0145 650.16,708.2958 Q651.3413,708.577 652.3538,709.1114 L652.3538,714.0052 Q651.2288,712.9645 650.16,712.4864 Q649.0913,711.9802 647.9663,711.9802 Q645.5475,711.9802 644.31,713.9208 Q643.0725,715.8333 643.0725,719.602 Q643.0725,723.3708 644.31,725.3114 Q645.5475,727.2239 647.9663,727.2239 Q649.0913,727.2239 650.16,726.7458 Q651.2288,726.2395 652.3538,725.1989 L652.3538,730.0927 Z " fill="#000000"/><text fill="#000000" font-family="sans-serif" font-size="23.4" lengthAdjust="spacing" textLength="149.4" x="706.59" y="728.0404">Appointment</text><line style="stroke:#181818;stroke-width:3.6;" x1="588.6" x2="919.8" y1="769.5591" y2="769.5591"/><ellipse cx="606.6" cy="820.0786" fill="none" rx="5.4" ry="5.4" style="stroke:#038048;stroke-width:1.8;"/><text fill="#000000" font-family="sans-serif" font-size="23.4" lengthAdjust="spacing" textLength="90" x="649.8" y="825.4795">id: Long</text><ellipse cx="606.6" cy="901.3177" fill="none" rx="5.4" ry="5.4" style="stroke:#038048;stroke-width:1.8;"/><text fill="#000000" font-family="sans-serif" font-size="23.4" lengthAdjust="spacing" textLength="234" x="649.8" y="906.7185">dateTime: DateTime</text><ellipse cx="606.6" cy="982.5567" fill="none" rx="5.4" ry="5.4" style="stroke:#038048;stroke-width:1.8;"/><text fill="#000000" font-family="sans-serif" font-size="23.4" lengthAdjust="spacing" textLength="205.2" x="649.8" y="987.9576">isUrgent: Boolean</text><line style="stroke:#181818;stroke-width:3.6;" x1="588.6" x2="919.8" y1="1027.6763" y2="1027.6763"/></g><!--class Office--><g id="elem_Office"><rect codeLine="82" fill="#FFFFE0" height="290.5172" id="Office" rx="4.5" ry="4.5" style="stroke:#181818;stroke-width:3.6;" width="250.2" x="85.5" y="1334.7"/><ellipse cx="145.71" cy="1384.3195" fill="#ADD1B2" rx="19.8" ry="19.8" style="stroke:#181818;stroke-width:1.8;"/><path d="M151.0538,1394.4727 Q150.0131,1395.007 148.86,1395.2602 Q147.7069,1395.5414 146.4413,1395.5414 Q141.9413,1395.5414 139.5506,1392.5883 Q137.1881,1389.607 137.1881,1383.982 Q137.1881,1378.357 139.5506,1375.3758 Q141.9413,1372.3945 146.4413,1372.3945 Q147.7069,1372.3945 148.86,1372.6758 Q150.0413,1372.957 151.0538,1373.4914 L151.0538,1378.3852 Q149.9288,1377.3445 148.86,1376.8664 Q147.7913,1376.3602 146.6663,1376.3602 Q144.2475,1376.3602 143.01,1378.3008 Q141.7725,1380.2133 141.7725,1383.982 Q141.7725,1387.7508 143.01,1389.6914 Q144.2475,1391.6039 146.6663,1391.6039 Q147.7913,1391.6039 148.86,1391.1258 Q149.9288,1390.6195 151.0538,1389.5789 L151.0538,1394.4727 Z " fill="#000000"/><text fill="#000000" font-family="sans-serif" font-size="23.4" lengthAdjust="spacing" textLength="64.8" x="205.29" y="1392.4204">Office</text><line style="stroke:#181818;stroke-width:3.6;" x1="87.3" x2="333.9" y1="1433.9391" y2="1433.9391"/><ellipse cx="105.3" cy="1484.4586" fill="none" rx="5.4" ry="5.4" style="stroke:#038048;stroke-width:1.8;"/><text fill="#000000" font-family="sans-serif" font-size="23.4" lengthAdjust="spacing" textLength="90" x="148.5" y="1489.8595">id: Long</text><ellipse cx="105.3" cy="1565.6977" fill="none" rx="5.4" ry="5.4" style="stroke:#038048;stroke-width:1.8;"/><text fill="#000000" font-family="sans-serif" font-size="23.4" lengthAdjust="spacing" textLength="149.4" x="148.5" y="1571.0985">name: String</text><line style="stroke:#181818;stroke-width:3.6;" x1="87.3" x2="333.9" y1="1610.8172" y2="1610.8172"/></g><!--class ContactInformation--><g id="elem_ContactInformation"><rect codeLine="87" fill="#FFFFE0" height="371.7563" id="ContactInformation" rx="4.5" ry="4.5" style="stroke:#181818;stroke-width:3.6;" width="333" x="587.7" y="1294.074"/><ellipse cx="614.7" cy="1343.6935" fill="#ADD1B2" rx="19.8" ry="19.8" style="stroke:#181818;stroke-width:1.8;"/><path d="M620.0438,1353.8467 Q619.0031,1354.381 617.85,1354.6342 Q616.6969,1354.9154 615.4313,1354.9154 Q610.9313,1354.9154 608.5406,1351.9623 Q606.1781,1348.981 606.1781,1343.356 Q606.1781,1337.731 608.5406,1334.7498 Q610.9313,1331.7685 615.4313,1331.7685 Q616.6969,1331.7685 617.85,1332.0498 Q619.0313,1332.331 620.0438,1332.8654 L620.0438,1337.7592 Q618.9188,1336.7185 617.85,1336.2404 Q616.7813,1335.7342 615.6563,1335.7342 Q613.2375,1335.7342 612,1337.6748 Q610.7625,1339.5873 610.7625,1343.356 Q610.7625,1347.1248 612,1349.0654 Q613.2375,1350.9779 615.6563,1350.9779 Q616.7813,1350.9779 617.85,1350.4998 Q618.9188,1349.9935 620.0438,1348.9529 L620.0438,1353.8467 Z " fill="#000000"/><text fill="#000000" font-family="sans-serif" font-size="23.4" lengthAdjust="spacing" textLength="221.4" x="666.9" y="1351.7944">ContactInformation</text><line style="stroke:#181818;stroke-width:3.6;" x1="589.5" x2="918.9" y1="1393.3131" y2="1393.3131"/><ellipse cx="607.5" cy="1443.8326" fill="none" rx="5.4" ry="5.4" style="stroke:#038048;stroke-width:1.8;"/><text fill="#000000" font-family="sans-serif" font-size="23.4" lengthAdjust="spacing" textLength="90" x="650.7" y="1449.2335">id: Long</text><ellipse cx="607.5" cy="1525.0717" fill="none" rx="5.4" ry="5.4" style="stroke:#038048;stroke-width:1.8;"/><text fill="#000000" font-family="sans-serif" font-size="23.4" lengthAdjust="spacing" textLength="154.8" x="650.7" y="1530.4725">phone: String</text><ellipse cx="607.5" cy="1606.3107" fill="none" rx="5.4" ry="5.4" style="stroke:#038048;stroke-width:1.8;"/><text fill="#000000" font-family="sans-serif" font-size="23.4" lengthAdjust="spacing" textLength="145.8" x="650.7" y="1611.7116">email: String</text><line style="stroke:#181818;stroke-width:3.6;" x1="589.5" x2="918.9" y1="1651.4303" y2="1651.4303"/></g><!--class MedicalReceptionist--><g id="elem_MedicalReceptionist"><rect codeLine="93" fill="#FFFFE0" height="290.5172" id="MedicalReceptionist" rx="4.5" ry="4.5" style="stroke:#181818;stroke-width:3.6;" width="338.4" x="79.2" y="127.8"/><ellipse cx="106.2" cy="177.4195" fill="#ADD1B2" rx="19.8" ry="19.8" style="stroke:#181818;stroke-width:1.8;"/><path d="M111.5438,187.5727 Q110.5031,188.107 109.35,188.3602 Q108.1969,188.6414 106.9313,188.6414 Q102.4313,188.6414 100.0406,185.6883 Q97.6781,182.707 97.6781,177.082 Q97.6781,171.457 100.0406,168.4758 Q102.4313,165.4945 106.9313,165.4945 Q108.1969,165.4945 109.35,165.7758 Q110.5313,166.057 111.5438,166.5914 L111.5438,171.4852 Q110.4188,170.4445 109.35,169.9664 Q108.2813,169.4602 107.1563,169.4602 Q104.7375,169.4602 103.5,171.4008 Q102.2625,173.3133 102.2625,177.082 Q102.2625,180.8508 103.5,182.7914 Q104.7375,184.7039 107.1563,184.7039 Q108.2813,184.7039 109.35,184.2258 Q110.4188,183.7195 111.5438,182.6789 L111.5438,187.5727 Z " fill="#000000"/><text fill="#000000" font-family="sans-serif" font-size="23.4" lengthAdjust="spacing" textLength="226.8" x="158.4" y="185.5204">MedicalReceptionist</text><line style="stroke:#181818;stroke-width:3.6;" x1="81" x2="415.8" y1="227.0391" y2="227.0391"/><ellipse cx="99" cy="277.5586" fill="none" rx="5.4" ry="5.4" style="stroke:#038048;stroke-width:1.8;"/><text fill="#000000" font-family="sans-serif" font-size="23.4" lengthAdjust="spacing" textLength="90" x="142.2" y="282.9595">id: Long</text><ellipse cx="99" cy="358.7977" fill="none" rx="5.4" ry="5.4" style="stroke:#038048;stroke-width:1.8;"/><text fill="#000000" font-family="sans-serif" font-size="23.4" lengthAdjust="spacing" textLength="149.4" x="142.2" y="364.1985">name: String</text><line style="stroke:#181818;stroke-width:3.6;" x1="81" x2="415.8" y1="403.9172" y2="403.9172"/></g><!--class Manager--><g id="elem_Manager"><rect codeLine="98" fill="#FFFFE0" height="290.5172" id="Manager" rx="4.5" ry="4.5" style="stroke:#181818;stroke-width:3.6;" width="250.2" x="670.5" y="127.8"/><ellipse cx="714.51" cy="177.4195" fill="#ADD1B2" rx="19.8" ry="19.8" style="stroke:#181818;stroke-width:1.8;"/><path d="M719.8538,187.5727 Q718.8131,188.107 717.66,188.3602 Q716.5069,188.6414 715.2413,188.6414 Q710.7413,188.6414 708.3506,185.6883 Q705.9881,182.707 705.9881,177.082 Q705.9881,171.457 708.3506,168.4758 Q710.7413,165.4945 715.2413,165.4945 Q716.5069,165.4945 717.66,165.7758 Q718.8413,166.057 719.8538,166.5914 L719.8538,171.4852 Q718.7288,170.4445 717.66,169.9664 Q716.5913,169.4602 715.4663,169.4602 Q713.0475,169.4602 711.81,171.4008 Q710.5725,173.3133 710.5725,177.082 Q710.5725,180.8508 711.81,182.7914 Q713.0475,184.7039 715.4663,184.7039 Q716.5913,184.7039 717.66,184.2258 Q718.7288,183.7195 719.8538,182.6789 L719.8538,187.5727 Z " fill="#000000"/><text fill="#000000" font-family="sans-serif" font-size="23.4" lengthAdjust="spacing" textLength="100.8" x="770.49" y="185.5204">Manager</text><line style="stroke:#181818;stroke-width:3.6;" x1="672.3" x2="918.9" y1="227.0391" y2="227.0391"/><ellipse cx="690.3" cy="277.5586" fill="none" rx="5.4" ry="5.4" style="stroke:#038048;stroke-width:1.8;"/><text fill="#000000" font-family="sans-serif" font-size="23.4" lengthAdjust="spacing" textLength="90" x="733.5" y="282.9595">id: Long</text><ellipse cx="690.3" cy="358.7977" fill="none" rx="5.4" ry="5.4" style="stroke:#038048;stroke-width:1.8;"/><text fill="#000000" font-family="sans-serif" font-size="23.4" lengthAdjust="spacing" textLength="149.4" x="733.5" y="364.1985">name: String</text><line style="stroke:#181818;stroke-width:3.6;" x1="672.3" x2="918.9" y1="403.9172" y2="403.9172"/></g><!--link WorkPeriod to Doctor--><g id="link_WorkPeriod_Doctor"><path codeLine="39" d="M2527.65,1042.938 C2527.65,1172.502 2527.65,1321.902 2527.65,1321.902 C2527.65,1321.902 2404.098,1321.902 2293.614,1321.902 " fill="none" id="WorkPeriod-to-Doctor" style="stroke:#181818;stroke-width:1.8;"/><polygon fill="#181818" points="2282.814,1321.902,2299.014,1329.102,2291.814,1321.902,2299.014,1314.702,2282.814,1321.902" style="stroke:#181818;stroke-width:1.8;"/><text fill="#000000" font-family="sans-serif" font-size="21.6" lengthAdjust="spacing" textLength="138.6" x="2556.45" y="1272.6876">pertenece a</text><text fill="#000000" font-family="sans-serif" font-size="21.6" lengthAdjust="spacing" textLength="39.6" x="2450.1087" y="1103.7785">0..*</text><text fill="#000000" font-family="sans-serif" font-size="21.6" lengthAdjust="spacing" textLength="14.4" x="2323.9039" y="1275.9426">1</text></g><!--link WorkPeriod to Nurse--><g id="link_WorkPeriod_Nurse"><path codeLine="40" d="M2660.4,1042.488 C2660.4,1135.836 2660.4,1236.384 2660.4,1323.378 " fill="none" id="WorkPeriod-to-Nurse" style="stroke:#181818;stroke-width:1.8;"/><polygon fill="#181818" points="2660.4,1334.178,2667.6,1317.978,2660.4,1325.178,2653.2,1317.978,2660.4,1334.178" style="stroke:#181818;stroke-width:1.8;"/><text fill="#000000" font-family="sans-serif" font-size="21.6" lengthAdjust="spacing" textLength="138.6" x="2689.2" y="1156.1916">pertenece a</text><text fill="#000000" font-family="sans-serif" font-size="21.6" lengthAdjust="spacing" textLength="39.6" x="2590.9481" y="1103.3011">0..*</text><text fill="#000000" font-family="sans-serif" font-size="21.6" lengthAdjust="spacing" textLength="14.4" x="2690.3391" y="1288.0487">1</text></g><!--reverse link WorkPeriod to Timetable--><g id="link_WorkPeriod_Timetable"><path codeLine="41" d="M2793.15,1063.962 C2793.15,1188.288 2793.15,1307.502 2793.15,1307.502 C2793.15,1307.502 2922.678,1307.502 3037.536,1307.502 " fill="none" id="WorkPeriod-backto-Timetable" style="stroke:#181818;stroke-width:1.8;"/><polygon fill="#181818" points="2793.15,1042.362,2785.95,1053.162,2793.15,1063.962,2800.35,1053.162,2793.15,1042.362" style="stroke:#181818;stroke-width:1.8;"/><text fill="#000000" font-family="sans-serif" font-size="21.6" lengthAdjust="spacing" textLength="99" x="2821.95" y="1264.9836">contiene</text><text fill="#000000" font-family="sans-serif" font-size="21.6" lengthAdjust="spacing" textLength="14.4" x="2842.5839" y="1031.9442">1</text><text fill="#000000" font-family="sans-serif" font-size="21.6" lengthAdjust="spacing" textLength="14.4" x="2982.8197" y="1263.6807">1</text></g><!--reverse link Patient to MedicalRecord--><g id="link_Patient_MedicalRecord"><path codeLine="69" d="M1463.85,1687.662 C1463.85,1768.824 1463.85,1840.986 1463.85,1917 " fill="none" id="Patient-backto-MedicalRecord" style="stroke:#181818;stroke-width:1.8;"/><polygon fill="#181818" points="1463.85,1666.062,1456.65,1676.862,1463.85,1687.662,1471.05,1676.862,1463.85,1666.062" style="stroke:#181818;stroke-width:1.8;"/><text fill="#000000" font-family="sans-serif" font-size="21.6" lengthAdjust="spacing" textLength="57.6" x="1492.65" y="1759.3896">tiene</text><text fill="#000000" font-family="sans-serif" font-size="21.6" lengthAdjust="spacing" textLength="14.4" x="1420.7491" y="1727.5693">1</text><text fill="#000000" font-family="sans-serif" font-size="21.6" lengthAdjust="spacing" textLength="14.4" x="1417.2701" y="1871.4192">1</text></g><!--reverse link MedicalRecord to Disease--><g id="link_MedicalRecord_Disease"><path codeLine="70" d="M1309.968,2063.502 C1309.968,2063.502 1324.35,2289.708 1324.35,2460.24 " fill="none" id="MedicalRecord-backto-Disease" style="stroke:#181818;stroke-width:1.8;"/><polygon fill="#181818" points="1331.568,2063.502,1320.768,2056.302,1309.968,2063.502,1320.768,2070.702,1331.568,2063.502" style="stroke:#181818;stroke-width:1.8;"/><text fill="#000000" font-family="sans-serif" font-size="21.6" lengthAdjust="spacing" textLength="88.2" x="1207.35" y="2226.1116">registra</text><text fill="#000000" font-family="sans-serif" font-size="21.6" lengthAdjust="spacing" textLength="14.4" x="1276.4689" y="2030.521">1</text><text fill="#000000" font-family="sans-serif" font-size="21.6" lengthAdjust="spacing" textLength="39.6" x="1264.8059" y="2414.1527">0..*</text></g><!--reverse link MedicalRecord to Prescription--><g id="link_MedicalRecord_Prescription"><path codeLine="71" d="M1618.65,2230.326 C1618.65,2306.232 1618.65,2378.322 1618.65,2459.484 " fill="none" id="MedicalRecord-backto-Prescription" style="stroke:#181818;stroke-width:1.8;"/><polygon fill="#181818" points="1618.65,2208.726,1611.45,2219.526,1618.65,2230.326,1625.85,2219.526,1618.65,2208.726" style="stroke:#181818;stroke-width:1.8;"/><text fill="#000000" font-family="sans-serif" font-size="21.6" lengthAdjust="spacing" textLength="88.2" x="1647.45" y="2301.9636">registra</text><text fill="#000000" font-family="sans-serif" font-size="21.6" lengthAdjust="spacing" textLength="14.4" x="1584.3129" y="2269.9558">1</text><text fill="#000000" font-family="sans-serif" font-size="21.6" lengthAdjust="spacing" textLength="39.6" x="1540.7121" y="2414.0453">0..*</text></g><!--reverse link Appointment to ContactInformation--><g id="link_Appointment_ContactInformation"><path codeLine="103" d="M754.2,1064.088 C754.2,1143.432 754.2,1214.19 754.2,1293.534 " fill="none" id="Appointment-backto-ContactInformation" style="stroke:#181818;stroke-width:1.8;"/><polygon fill="#181818" points="754.2,1042.488,747,1053.288,754.2,1064.088,761.4,1053.288,754.2,1042.488" style="stroke:#181818;stroke-width:1.8;"/><text fill="#000000" font-family="sans-serif" font-size="21.6" lengthAdjust="spacing" textLength="57.6" x="783" y="1135.8696">tiene</text><text fill="#000000" font-family="sans-serif" font-size="21.6" lengthAdjust="spacing" textLength="14.4" x="710.7159" y="1103.3011">1</text><text fill="#000000" font-family="sans-serif" font-size="21.6" lengthAdjust="spacing" textLength="14.4" x="710.3953" y="1247.4163">1</text></g><!--link Appointment to Office--><g id="link_Appointment_Office"><path codeLine="104" d="M585.918,855.702 C426.276,855.702 210.6,855.702 210.6,855.702 C210.6,855.702 210.6,1139.112 210.6,1323.576 " fill="none" id="Appointment-to-Office" style="stroke:#181818;stroke-width:1.8;"/><polygon fill="#181818" points="210.6,1334.376,217.8,1318.176,210.6,1325.376,203.4,1318.176,210.6,1334.376" style="stroke:#181818;stroke-width:1.8;"/><text fill="#000000" font-family="sans-serif" font-size="21.6" lengthAdjust="spacing" textLength="142.2" x="39.6" y="875.2296">se realiza en</text><text fill="#000000" font-family="sans-serif" font-size="21.6" lengthAdjust="spacing" textLength="39.6" x="505.5393" y="822.8965">1..*</text><text fill="#000000" font-family="sans-serif" font-size="21.6" lengthAdjust="spacing" textLength="14.4" x="166.2609" y="1288.2638">1</text></g><!--link MedicalReceptionist to Appointment--><g id="link_MedicalReceptionist_Appointment"><path codeLine="105" d="M417.96,272.502 C519.354,272.502 628.65,272.502 628.65,272.502 C628.65,272.502 628.65,488.286 628.65,659.106 " fill="none" id="MedicalReceptionist-to-Appointment" style="stroke:#181818;stroke-width:1.8;stroke-dasharray:7.0,7.0;"/><polygon fill="#181818" points="628.65,669.906,635.85,653.706,628.65,660.906,621.45,653.706,628.65,669.906" style="stroke:#181818;stroke-width:1.8;"/><text fill="#000000" font-family="sans-serif" font-size="21.6" lengthAdjust="spacing" textLength="50.4" x="549.45" y="333.6996">crea</text></g><!--link Manager to Appointment--><g id="link_Manager_Appointment"><path codeLine="106" d="M795.6,418.698 C795.6,494.604 795.6,577.494 795.6,658.656 " fill="none" id="Manager-to-Appointment" style="stroke:#181818;stroke-width:1.8;stroke-dasharray:7.0,7.0;"/><polygon fill="#181818" points="795.6,669.456,802.8,653.256,795.6,660.456,788.4,653.256,795.6,669.456" style="stroke:#181818;stroke-width:1.8;"/><text fill="#000000" font-family="sans-serif" font-size="21.6" lengthAdjust="spacing" textLength="97.2" x="669.6" y="511.9356">consulta</text></g><!--link Appointment to Patient--><g id="link_Appointment_Patient"><path codeLine="110" d="M922.338,918.702 C1130.022,918.702 1456.2,918.702 1456.2,918.702 C1456.2,918.702 1456.2,1119.672 1456.2,1283.04 " fill="none" id="Appointment-to-Patient" style="stroke:#181818;stroke-width:1.8;"/><polygon fill="#181818" points="1456.2,1293.84,1463.4,1277.64,1456.2,1284.84,1449,1277.64,1456.2,1293.84" style="stroke:#181818;stroke-width:1.8;"/><text fill="#000000" font-family="sans-serif" font-size="21.6" lengthAdjust="spacing" textLength="52.2" x="1295.838" y="886.5516">para</text><text fill="#000000" font-family="sans-serif" font-size="21.6" lengthAdjust="spacing" textLength="39.6" x="963.1075" y="889.9324">1..*</text><text fill="#000000" font-family="sans-serif" font-size="21.6" lengthAdjust="spacing" textLength="14.4" x="1412.3953" y="1247.7438">1</text></g><!--link Appointment to Doctor--><g id="link_Appointment_Doctor"><path codeLine="111" d="M922.068,794.502 C1291.086,794.502 2140.2,794.502 2140.2,794.502 C2140.2,794.502 2140.2,1090.584 2140.2,1293.552 " fill="none" id="Appointment-Doctor" style="stroke:#181818;stroke-width:1.8;"/><text fill="#000000" font-family="sans-serif" font-size="21.6" lengthAdjust="spacing" textLength="180" x="1571.868" y="762.3516">es atendida por</text><text fill="#000000" font-family="sans-serif" font-size="21.6" lengthAdjust="spacing" textLength="39.6" x="962.8202" y="757.7758">1..*</text><text fill="#000000" font-family="sans-serif" font-size="21.6" lengthAdjust="spacing" textLength="39.6" x="2070.3094" y="1247.4356">1..*</text></g><!--link Doctor to MedicalRecord--><g id="link_Doctor_MedicalRecord"><path codeLine="112" d="M1997.1,1417.302 C1844.352,1417.302 1624.05,1417.302 1624.05,1417.302 C1624.05,1417.302 1624.05,1716.084 1624.05,1906.56 " fill="none" id="Doctor-to-MedicalRecord" style="stroke:#181818;stroke-width:1.8;stroke-dasharray:7.0,7.0;"/><polygon fill="#181818" points="1624.05,1917.36,1631.25,1901.16,1624.05,1908.36,1616.85,1901.16,1624.05,1917.36" style="stroke:#181818;stroke-width:1.8;"/><text fill="#000000" font-family="sans-serif" font-size="21.6" lengthAdjust="spacing" textLength="99" x="1652.85" y="1448.6556">actualiza</text></g><!--link Doctor to Prescription--><g id="link_Doctor_Prescription"><path codeLine="113" d="M1997.172,1541.502 C1894.572,1541.502 1774.35,1541.502 1774.35,1541.502 C1774.35,1541.502 1774.35,2133.63 1774.35,2448.648 " fill="none" id="Doctor-to-Prescription" style="stroke:#181818;stroke-width:1.8;stroke-dasharray:7.0,7.0;"/><polygon fill="#181818" points="1774.35,2459.448,1781.55,2443.248,1774.35,2450.448,1767.15,2443.248,1774.35,2459.448" style="stroke:#181818;stroke-width:1.8;"/><text fill="#000000" font-family="sans-serif" font-size="21.6" lengthAdjust="spacing" textLength="82.8" x="1662.75" y="1856.9136">escribe</text></g><!--SRC=[dLNDRjim3BxxAOXS2dH8qBJRCFXGe4sm7w1TY_vWs96H64U88dcIZA8T-XHxYftt27snqKwSo6wShJqaSQYF5Fdn8xq78skcAYiS2lNqnoH-haoE3XUWbQ5mdnDO5sOsEZ1MagSSXcyF8gj3CrzR1Mg2uU134W64Hky_MXEkrGCVlcyVdOJWrAG8jC4SHPWSfLGcW-6xjkCfYddcR67ao6hhu4nbi_2TjBPtpw3MIN8tCoNcXho7mmXmufozsznzc2HxSFxqQtnxTW7353wH3oL380akoNbhK2SvNuqPGQ-siCTlgOJjmSy4bdV2s8h0QPK6W3UWP0fdrcIhlmONbC8rrxus-Po4GXtk8_iZVzOHlnREqty6R3X-isxEgIehkxnzG1V663X4-Rsoaf4DMoFeZLfGm8dkp6XXZSJxpvQpRbKQ2l9RZbRXesnx1uF1VW_w_MFe3NirfIdav08P4WIuqs79s2uyW_Rx_UftKr0AWWMXs2DvZFLmcC8b3moPG3uIGMsAkt-9fNzuGVidYWUkc-vpOe6XlYB1OkuAAnpnlTPqXnahJzYj8YNay634azvAZaTVE9MNiRj4Tkasc4v9L4MqebJnhMSkduUkQOpxr6GYXMMZe6LVUomLKTUTWgDC-U3mNnwDUYAtXYAEKXYfW94QueLH7SMgECbpgqnOx526vAQLIboshtogSVxMPUoOmgcrcj2q6t0ndIhnglt0BuE08dmnK-iMkAk1-SoQjZPeWKftXTvGJ1MJpE5hCZn7m-owbxd6RCS2sbBkHaLDfyOsMH6S0kk81qsh1-GLsT3HfiZ1uBWHAws6imIlIja2iCONEgmaTaMQ5mlJxVcIu8XVXJyAAZVFZXJhUU6Lns-txSZwQRrD-GQMcf5A8kJM9Qk3Ci7sh35jHLLu36fDIlLdGdy1]--></g></svg>